<?xml version="1.0" encoding="UTF-8" standalone="no"?>
<!DOCTYPE svg PUBLIC "-//W3C//DTD SVG 1.1//EN" "http://www.w3.org/Graphics/SVG/1.1/DTD/svg11.dtd">
<svg width="100%" height="100%" viewBox="0 0 575 104" version="1.1" xmlns="http://www.w3.org/2000/svg" xmlns:xlink="http://www.w3.org/1999/xlink" xml:space="preserve" xmlns:serif="http://www.serif.com/" style="fill-rule:evenodd;clip-rule:evenodd;stroke-linejoin:round;stroke-miterlimit:2;">
    <g transform="matrix(1,0,0,1,-1943.02,-173.857)">
        <g transform="matrix(1,0,0,1,0,-16339.9)">
            <g transform="matrix(1,0,0,1,6.56869,0)">
                <g transform="matrix(7.86916,0,0,7.86916,-56030.7,13304.4)">
                    <g transform="matrix(12,0,0,12,7383.69,418.373)">
                        <path d="M0.152,-0L0.152,-0.082L0.156,-0.082C0.18,-0.024 0.238,0.01 0.324,0.01C0.463,0.01 0.539,-0.091 0.539,-0.249C0.539,-0.406 0.467,-0.507 0.33,-0.507C0.242,-0.507 0.185,-0.463 0.163,-0.418L0.161,-0.418L0.161,-0.67L0.053,-0.67L0.053,-0L0.152,-0ZM0.161,-0.204L0.161,-0.293C0.161,-0.376 0.209,-0.415 0.296,-0.415C0.391,-0.415 0.432,-0.371 0.432,-0.249C0.432,-0.126 0.392,-0.082 0.296,-0.082C0.209,-0.082 0.161,-0.121 0.161,-0.204Z" style="fill:white;fill-rule:nonzero;"/>
                    </g>
                    <g transform="matrix(12,0,0,12,7390.75,418.373)">
                        <rect x="0.053" y="-0.67" width="0.108" height="0.67" style="fill:white;fill-rule:nonzero;"/>
                    </g>
                    <g transform="matrix(12,0,0,12,7393.51,418.373)">
                        <path d="M0.281,0.01C0.433,0.01 0.525,-0.094 0.525,-0.249C0.525,-0.403 0.433,-0.507 0.281,-0.507C0.128,-0.507 0.033,-0.403 0.033,-0.249C0.033,-0.094 0.128,0.01 0.281,0.01ZM0.281,-0.086C0.176,-0.086 0.139,-0.137 0.139,-0.249C0.139,-0.36 0.176,-0.411 0.281,-0.411C0.385,-0.411 0.421,-0.36 0.421,-0.249C0.421,-0.137 0.385,-0.086 0.281,-0.086Z" style="fill:white;fill-rule:nonzero;"/>
                    </g>
                    <g transform="matrix(12,0,0,12,7400.44,418.373)">
                        <path d="M0.276,0.011C0.41,0.011 0.501,-0.071 0.501,-0.189L0.501,-0.198L0.394,-0.198L0.394,-0.192C0.394,-0.119 0.356,-0.087 0.273,-0.087C0.177,-0.087 0.14,-0.14 0.14,-0.248C0.14,-0.356 0.177,-0.41 0.273,-0.41C0.356,-0.41 0.394,-0.377 0.394,-0.304L0.394,-0.298L0.501,-0.298L0.501,-0.307C0.501,-0.426 0.411,-0.507 0.28,-0.507C0.124,-0.507 0.033,-0.403 0.033,-0.248C0.033,-0.094 0.121,0.011 0.276,0.011Z" style="fill:white;fill-rule:nonzero;"/>
                    </g>
                    <g transform="matrix(12,0,0,12,7407.04,418.373)">
                        <path d="M0.161,-0L0.161,-0.203L0.26,-0.203L0.39,-0L0.516,-0L0.346,-0.262L0.519,-0.497L0.392,-0.497L0.259,-0.3L0.161,-0.3L0.161,-0.67L0.053,-0.67L0.053,-0L0.161,-0Z" style="fill:white;fill-rule:nonzero;"/>
                    </g>
                    <g transform="matrix(12,0,0,12,7413.49,418.373)">
                        <path d="M0.161,-0L0.161,-0.286C0.161,-0.38 0.201,-0.414 0.289,-0.414C0.38,-0.414 0.408,-0.377 0.408,-0.288L0.408,-0L0.516,-0L0.516,-0.313C0.516,-0.422 0.461,-0.507 0.331,-0.507C0.241,-0.507 0.188,-0.459 0.165,-0.414L0.161,-0.414L0.161,-0.67L0.053,-0.67L0.053,-0L0.161,-0Z" style="fill:white;fill-rule:nonzero;"/>
                    </g>
                    <g transform="matrix(12,0,0,12,7420.53,418.373)">
                        <path d="M0.189,0.01C0.283,0.01 0.34,-0.031 0.369,-0.078L0.374,-0.078L0.374,-0L0.474,-0L0.474,-0.302C0.474,-0.423 0.404,-0.507 0.265,-0.507C0.132,-0.507 0.045,-0.427 0.045,-0.316L0.045,-0.306L0.149,-0.306L0.149,-0.321C0.149,-0.387 0.18,-0.412 0.259,-0.412C0.337,-0.412 0.371,-0.39 0.371,-0.316L0.371,-0.289L0.197,-0.263C0.091,-0.248 0.031,-0.205 0.031,-0.123C0.031,-0.036 0.1,0.01 0.189,0.01ZM0.136,-0.131C0.136,-0.168 0.156,-0.181 0.213,-0.189L0.371,-0.213L0.371,-0.204C0.371,-0.104 0.294,-0.076 0.224,-0.076C0.161,-0.076 0.136,-0.092 0.136,-0.131Z" style="fill:white;fill-rule:nonzero;"/>
                    </g>
                    <g transform="matrix(12,0,0,12,7427.02,418.373)">
                        <path d="M0.262,0.01C0.388,0.01 0.461,-0.044 0.461,-0.136C0.461,-0.218 0.411,-0.261 0.315,-0.28L0.231,-0.296C0.161,-0.31 0.143,-0.321 0.143,-0.359C0.143,-0.397 0.162,-0.418 0.241,-0.418C0.33,-0.418 0.346,-0.385 0.346,-0.339L0.346,-0.327L0.449,-0.327L0.449,-0.336C0.449,-0.449 0.361,-0.507 0.244,-0.507C0.114,-0.507 0.04,-0.447 0.04,-0.357C0.04,-0.267 0.096,-0.227 0.185,-0.211L0.262,-0.198C0.335,-0.185 0.359,-0.173 0.359,-0.133C0.359,-0.096 0.344,-0.078 0.264,-0.078C0.169,-0.078 0.145,-0.098 0.145,-0.152L0.145,-0.17L0.041,-0.17L0.041,-0.168C0.041,-0.047 0.117,0.01 0.262,0.01Z" style="fill:white;fill-rule:nonzero;"/>
                    </g>
                    <g transform="matrix(12,0,0,12,7433.15,418.373)">
                        <path d="M0.161,-0L0.161,-0.286C0.161,-0.38 0.201,-0.414 0.289,-0.414C0.38,-0.414 0.408,-0.377 0.408,-0.288L0.408,-0L0.516,-0L0.516,-0.313C0.516,-0.422 0.461,-0.507 0.331,-0.507C0.241,-0.507 0.188,-0.459 0.165,-0.414L0.161,-0.414L0.161,-0.67L0.053,-0.67L0.053,-0L0.161,-0Z" style="fill:white;fill-rule:nonzero;"/>
                    </g>
                </g>
                <g transform="matrix(0.356533,0,0,0.356533,1838.5,10162.5)">
                    <g transform="matrix(0.517545,0,0,0.658309,-9736.95,14592.9)">
                        <path d="M19721.5,5071.73L19721.5,5071.82C19724.9,5072.11 19729.2,5073.11 19734.2,5074.82C19746,5078.86 19762.5,5086.91 19778.3,5096.05C19794.1,5105.19 19809.3,5115.4 19818.7,5123.61C19823.5,5127.81 19826.9,5131.67 19828.7,5134.72C19830.5,5137.77 19832.1,5142.67 19833.3,5148.93C19835.8,5161.17 19837,5179.44 19837,5197.71C19837,5215.99 19835.8,5234.26 19833.3,5246.5C19832.1,5252.76 19830.5,5257.65 19828.7,5260.7C19826.9,5263.75 19823.5,5267.62 19818.7,5271.82C19809.3,5280.03 19794.1,5290.24 19778.3,5299.38C19762.5,5308.51 19746,5316.57 19734.2,5320.61C19729.2,5322.32 19724.9,5323.32 19721.5,5323.61L19721.5,5323.69L19471.4,5323.69L19471.4,5071.73L19721.5,5071.73Z" style="fill:rgb(88,74,255);"/>
                    </g>
                    <g transform="matrix(0.517545,0,0,0.658309,-9796.85,14481.8)">
                        <path d="M19721.5,5071.73L19721.5,5071.82C19724.9,5072.11 19729.2,5073.11 19734.2,5074.82C19746,5078.86 19762.5,5086.91 19778.3,5096.05C19794.1,5105.19 19809.3,5115.4 19818.7,5123.61C19823.5,5127.81 19826.9,5131.67 19828.7,5134.72C19830.5,5137.77 19832.1,5142.67 19833.3,5148.93C19835.8,5161.17 19837,5179.44 19837,5197.71C19837,5215.99 19835.8,5234.26 19833.3,5246.5C19832.1,5252.76 19830.5,5257.65 19828.7,5260.7C19826.9,5263.75 19823.5,5267.62 19818.7,5271.82C19809.3,5280.03 19794.1,5290.24 19778.3,5299.38C19762.5,5308.51 19746,5316.57 19734.2,5320.61C19729.2,5322.32 19724.9,5323.32 19721.5,5323.61L19721.5,5323.69L19585.6,5323.69L19585.6,5240.6L19471.4,5071.73L19721.5,5071.73Z" style="fill:rgb(195,255,77);"/>
                    </g>
                    <g transform="matrix(0.517545,0,0,0.658309,-9802.58,14481.8)">
                        <path d="M19585.6,5240.6C19585.6,5240.6 19835.8,5234.26 19833.3,5246.5C19832.1,5252.76 19830.5,5257.65 19828.7,5260.7C19826.9,5263.75 19823.5,5267.62 19818.7,5271.82C19809.3,5280.03 19794.1,5290.24 19778.3,5299.38C19762.5,5308.51 19746,5316.57 19734.2,5320.61C19729.2,5322.32 19724.9,5323.32 19721.5,5323.61L19721.5,5323.69L19585.6,5323.69L19585.6,5240.6Z" style="fill:rgb(0,29,101);"/>
                    </g>
                    <g transform="matrix(0.658309,0,0,0.658309,-12611.1,14592.9)">
                        <path d="M19673.8,5071.73L19584,4902.87L19584,5323.69L19673.8,5323.69L19673.8,5071.73Z" style="fill:rgb(88,74,255);"/>
                    </g>
                    <g transform="matrix(2.56894,0,0,2.56894,-53830.2,-6631.25)">
                        <path d="M21061.2,9518.26C21061.2,9517.8 21061.4,9517.35 21061.6,9516.95C21061.9,9516.38 21062.5,9515.96 21063.1,9515.8C21063.4,9515.75 21063.6,9515.73 21063.8,9515.73L21114.4,9515.72L21114.4,9515.76L21114.4,9515.76C21114.4,9515.75 21114.4,9515.74 21114.4,9515.72C21118.9,9516.21 21122.9,9519.39 21126.7,9522.16C21126.8,9522.26 21127,9522.35 21127.1,9522.45C21130.3,9524.76 21134.1,9527.18 21136.6,9530.87C21137.2,9531.64 21137.7,9532.47 21138.1,9533.35C21140.4,9538.42 21140,9545.04 21140,9550.55C21139.9,9553.61 21140,9556.65 21139.8,9559.61C21140.1,9559.73 21140.4,9559.85 21140.7,9560C21143.2,9561.09 21146.7,9563.25 21150.1,9565.72C21153.4,9568.17 21156.6,9570.93 21158.6,9573.13C21159.8,9574.44 21160.6,9575.67 21161.1,9576.63C21161.5,9577.55 21161.9,9579.03 21162.2,9580.93C21162.7,9584.16 21163,9588.99 21163,9593.82C21163,9598.65 21162.7,9603.47 21162.2,9606.71C21161.9,9608.6 21161.5,9610.08 21161.1,9611.01C21160.6,9611.96 21159.8,9613.19 21158.6,9614.5C21156.6,9616.71 21153.4,9619.46 21150.1,9621.91C21146.7,9624.38 21143.2,9626.55 21140.7,9627.64C21139.6,9628.11 21138.7,9628.41 21137.9,9628.54C21137.6,9628.6 21137.4,9628.64 21137.2,9628.64L21063.8,9628.64C21062.4,9628.64 21061.2,9627.5 21061.2,9626.1L21061.2,9518.26ZM21068,9520.8L21088.3,9559L21134.7,9559C21135,9556.18 21134.9,9553.3 21134.9,9550.55C21134.9,9545.55 21135.1,9540.14 21133.4,9535.45C21133,9534.33 21131.9,9533.05 21131.2,9532.35C21130.5,9531.71 21129.5,9530.85 21128.4,9529.98C21127.8,9529.48 21127.3,9529.02 21126.7,9528.59C21125.9,9527.95 21125.2,9527.37 21124.6,9526.93C21124.5,9526.81 21124.3,9526.68 21124.1,9526.55C21124,9526.5 21124,9526.44 21123.9,9526.39C21122.6,9525.46 21121.3,9524.58 21119.6,9523.5C21118.8,9522.97 21116,9521.41 21114.6,9520.93C21114.4,9520.87 21114.1,9520.83 21113.9,9520.81L21113.9,9520.8L21068,9520.8ZM21084.2,9562.17L21066.3,9528.44L21066.3,9623.56L21084.2,9623.56L21084.2,9562.17ZM21089.3,9623.56L21136.9,9623.56L21136.9,9623.56C21137.4,9623.5 21138,9623.3 21138.7,9622.98C21141,9622.01 21144.1,9620.04 21147.1,9617.82C21150.1,9615.59 21153.1,9613.11 21154.9,9611.11C21155.6,9610.27 21156.2,9609.52 21156.4,9608.91C21156.7,9608.27 21157,9607.24 21157.2,9605.93C21157.7,9602.89 21157.9,9598.35 21157.9,9593.82C21157.9,9589.28 21157.7,9584.74 21157.2,9581.7C21157,9580.39 21156.7,9579.36 21156.4,9578.72C21156.2,9578.12 21155.6,9577.36 21154.9,9576.52C21153.1,9574.52 21150.1,9572.04 21147.1,9569.81C21144.2,9567.68 21141.2,9565.78 21139,9564.77C21138.7,9565.77 21138.4,9566.76 21138.1,9567.74C21136.9,9570.78 21133.9,9573.11 21131.9,9574.84C21128.5,9577.72 21125.8,9579.74 21122.1,9582.02C21119.9,9583.35 21116.9,9585.06 21114.4,9585.33L21114.2,9585.34C21114.2,9585.36 21114.2,9585.36 21114.2,9585.36L21089.3,9585.36L21089.3,9623.56ZM21089.3,9564.07L21089.3,9580.29L21113.9,9580.29L21113.9,9580.28C21117.2,9579.92 21121.4,9576.51 21124.1,9574.54C21125.6,9573.42 21129.4,9570.36 21131.2,9568.74C21131.9,9568.04 21133,9566.76 21133.4,9565.64C21133.6,9565.12 21133.8,9564.6 21133.9,9564.07L21089.3,9564.07Z" style="fill:white;"/>
                    </g>
                </g>
            </g>
        </g>
    </g>
</svg>
