<?xml version="1.0" standalone="no"?>
<!DOCTYPE svg PUBLIC "-//W3C//DTD SVG 20010904//EN"
 "http://www.w3.org/TR/2001/REC-SVG-20010904/DTD/svg10.dtd">
<svg version="1.0" xmlns="http://www.w3.org/2000/svg"
 width="357.000000pt" height="357.000000pt" viewBox="0 0 357.000000 357.000000"
 preserveAspectRatio="xMidYMid meet">
<metadata>
Created by potrace 1.14, written by Peter Selinger 2001-2017
</metadata>
<g transform="translate(0.000000,357.000000) scale(0.100000,-0.100000)"
fill="#000000" stroke="none">
<path d="M377 3350 l-27 -21 0 -1544 0 -1544 27 -20 26 -21 1066 2 1066 3 87
42 c210 101 492 332 543 446 41 91 50 180 50 477 0 291 -11 405 -46 487 -47
110 -330 347 -535 448 l-61 30 -5 305 c-4 277 -7 311 -26 370 -27 82 -69 149
-133 211 -80 78 -316 246 -418 297 l-94 47 -747 3 c-745 2 -747 2 -773 -18z
m1546 -161 c119 -60 303 -195 404 -295 85 -84 105 -192 101 -524 l-3 -205
-658 0 -658 0 -275 513 c-151 282 -278 520 -281 528 -4 12 85 14 651 14 l657
0 62 -31z m471 -1201 c-15 -48 -58 -98 -147 -171 -126 -103 -240 -184 -315
-224 l-63 -33 -365 0 -364 0 0 225 0 225 631 0 630 0 -7 -22z"/>
</g>
</svg>
