<svg width="179" height="179" viewBox="0 0 179 179" fill="none" xmlns="http://www.w3.org/2000/svg">
<path d="M122.614 13.1153C112.584 8.76568 101.796 6.43463 90.8651 6.25534C79.9343 6.07604 69.0752 8.052 58.9082 12.0704C48.7411 16.0887 39.4654 22.0707 31.6108 29.6747C23.7561 37.2787 17.4765 46.3556 13.1307 56.387C12.2797 58.3295 11.5027 60.2905 10.8181 62.307C5.57548 77.474 4.82812 93.833 8.66603 109.415C12.5039 124.997 20.7635 139.137 32.4506 150.134C44.1376 161.131 58.754 168.516 74.5403 171.4C90.3265 174.284 106.61 172.543 121.43 166.388C121.837 166.222 122.226 166.055 122.614 165.87C137.506 159.413 150.185 148.742 159.091 135.172C167.997 121.602 172.742 105.725 172.742 89.4929C172.742 73.2613 167.997 57.3837 159.091 43.8137C150.185 30.2437 137.506 19.5733 122.614 13.1153ZM146.942 114.403C140.593 128.973 128.958 140.594 114.382 146.926C114.086 147.074 113.79 147.185 113.494 147.315C105.733 150.53 97.406 152.153 89.0063 152.086C80.6066 152.019 72.306 150.265 64.5979 146.926C53.6141 142.155 44.2232 134.344 37.5323 124.412C35.412 121.246 33.5793 117.896 32.0562 114.403C29.6297 108.776 28.0403 102.824 27.3387 96.7357C26.2416 87.401 27.2725 77.939 30.3542 69.0596C30.8722 67.5426 31.4457 66.0626 32.0747 64.6011C35.9815 55.5964 41.9512 47.6368 49.5018 41.365C58.4041 33.97 69.1818 29.1872 80.6382 27.5478C92.0946 25.9084 103.781 27.4765 114.4 32.0779C129.622 38.6924 141.597 51.0757 147.698 66.5102C153.799 81.9446 153.527 99.1691 146.942 114.403Z" fill="#FFE710"/>
<path d="M114.4 32.0778C99.1695 25.4778 81.9416 25.1963 66.5037 31.2951C51.0659 37.3939 38.6819 49.3738 32.0745 64.6009C31.4455 66.0624 30.872 67.5424 30.354 69.0594C27.2723 77.9388 26.2413 87.4008 27.3385 96.7356C28.04 102.823 29.6294 108.776 32.056 114.403C33.5791 117.896 35.4117 121.246 37.532 124.412C43.2627 132.935 51.0019 139.917 60.0676 144.743C69.1332 149.57 79.2469 152.092 89.5172 152.088C97.7471 152.107 105.898 150.484 113.493 147.315C113.789 147.185 114.085 147.074 114.381 146.926C125.588 142.089 135.131 134.073 141.832 123.871C148.533 113.669 152.097 101.727 152.085 89.5205C152.091 77.3135 148.527 65.371 141.831 55.1644C135.135 44.9577 125.6 36.9326 114.4 32.0778Z" fill="#FFE710"/>
<path d="M113.493 147.315C105.733 150.531 97.4057 152.153 89.006 152.086C80.6064 152.02 72.3058 150.265 64.5976 146.927L56.3836 165.889C66.638 170.331 77.6812 172.665 88.856 172.75C100.031 172.836 111.109 170.673 121.43 166.389C121.837 166.222 122.225 166.056 122.614 165.871L114.381 146.927C114.085 147.075 113.789 147.186 113.493 147.315Z" fill="#FFB11B"/>
<path d="M56.3836 13.1155L64.5976 32.0781C72.4578 28.6732 80.9328 26.9165 89.4988 26.9165C98.0647 26.9165 106.54 28.6732 114.4 32.0781L122.614 13.1155C112.161 8.5879 100.89 6.25195 89.4988 6.25195C78.1072 6.25195 66.8367 8.5879 56.3836 13.1155Z" fill="#FFB11B"/>
<path d="M32.0745 64.6017L13.1304 56.3877C12.2794 58.3302 11.5024 60.2912 10.8179 62.3077C4.01195 81.9904 4.83045 103.509 13.1119 122.618L32.056 114.404C29.6294 108.777 28.0401 102.824 27.3385 96.7364C26.2413 87.4017 27.2723 77.9397 30.354 69.0603C30.872 67.5432 31.4455 66.0632 32.0745 64.6017Z" fill="#FFB11B"/>
<path d="M146.923 64.6017C150.325 72.4622 152.081 80.9359 152.084 89.5009C152.088 98.0659 150.337 106.541 146.941 114.404L165.904 122.618C170.423 112.162 172.752 100.891 172.749 89.5009C172.746 78.1104 170.41 66.8411 165.886 56.3877L146.923 64.6017Z" fill="#FFB11B"/>
<path d="M93.4467 81.4772C83.9746 79.4422 80.9092 78.1343 80.9092 74.2326C80.9092 71.0746 83.7896 68.6604 88.8975 68.6604C95.5404 68.8816 101.93 71.2626 107.098 75.4425L115.177 64.1112C109.897 59.6985 103.481 56.8614 96.6638 55.9249V47.6924H82.3337V56.1155C71.7387 58.2892 64.9436 65.6264 64.9436 75.8144C64.9436 88.6312 75.065 92.346 88.7162 95.4096C98.0032 97.6297 100.974 98.4751 100.974 102.282C100.974 105.718 97.9126 108.134 91.9685 108.134C84.2327 108.015 76.7913 105.149 70.9746 100.048L62.0557 110.73C67.7662 115.839 74.7887 119.254 82.3337 120.59V129.285H96.6638V121.101C109.346 119.45 116.942 111.932 116.942 100.603C116.942 88.6275 107.749 84.5408 93.4467 81.4772Z" fill="#FFB11B"/>
<path d="M148.329 143.724C148.031 144.048 147.728 144.37 147.424 144.688C147.13 144.995 146.9 145.357 146.746 145.754C146.592 146.15 146.517 146.573 146.527 146.998C146.536 147.423 146.629 147.842 146.8 148.231C146.972 148.62 147.218 148.972 147.525 149.266C147.832 149.56 148.194 149.791 148.591 149.945C148.987 150.099 149.41 150.173 149.835 150.164C150.26 150.154 150.679 150.061 151.068 149.89C151.457 149.719 151.809 149.472 152.103 149.165C152.436 148.816 152.766 148.464 153.095 148.109C153.382 147.796 153.606 147.429 153.752 147.03C153.898 146.631 153.965 146.207 153.947 145.782C153.929 145.357 153.828 144.94 153.649 144.554C153.47 144.168 153.217 143.822 152.904 143.534C152.591 143.246 152.225 143.022 151.825 142.876C151.426 142.73 151.002 142.664 150.577 142.682C150.152 142.699 149.735 142.8 149.349 142.979C148.964 143.158 148.617 143.411 148.329 143.724Z" fill="#141718"/>
<path d="M123.909 10.1482H123.892C109.221 3.78368 93.0713 1.61392 77.2402 3.88026C61.4091 6.1466 46.517 12.7602 34.2205 22.9854C23.8035 31.6584 15.5662 42.654 10.1704 55.0886C9.23057 57.2291 8.44431 59.2437 7.76536 61.2232C0.634129 81.8256 1.54735 104.361 10.3222 124.319C19.0971 144.277 35.086 160.184 55.0886 168.857H55.0997C65.7496 173.469 77.2184 175.892 88.8239 175.982C100.429 176.072 111.934 173.827 122.655 169.38C123.121 169.195 123.563 168.999 123.898 168.836L123.987 168.796L124.005 168.786C126.632 167.648 129.201 166.379 131.701 164.983C132.41 164.587 133.113 164.181 133.81 163.765C134.178 163.549 134.498 163.262 134.755 162.921C135.011 162.58 135.197 162.192 135.303 161.779C135.409 161.366 135.432 160.936 135.371 160.514C135.31 160.092 135.166 159.686 134.948 159.32C134.73 158.953 134.441 158.633 134.099 158.379C133.757 158.124 133.368 157.94 132.954 157.836C132.541 157.732 132.111 157.711 131.689 157.774C131.267 157.837 130.862 157.983 130.497 158.203C129.851 158.585 129.202 158.963 128.543 159.329C127.154 160.106 125.718 160.833 124.257 161.538L118.607 148.534C131.615 142.144 142.143 131.628 148.547 118.627L161.573 124.27C160.942 125.565 160.278 126.86 159.592 128.123C159.177 128.875 159.077 129.761 159.315 130.586C159.553 131.411 160.109 132.107 160.861 132.523C161.613 132.938 162.498 133.037 163.323 132.799C164.148 132.561 164.845 132.005 165.26 131.253C166.576 128.871 167.791 126.399 168.873 123.907C177.99 102.858 178.375 79.0508 169.943 57.7186C161.511 36.3863 144.953 19.2756 123.909 10.1482ZM124.268 17.4428C140.57 25.2801 153.721 38.4318 161.557 54.7353L148.531 60.3759C142.139 47.3771 131.623 36.8611 118.623 30.4705L124.268 17.4428ZM89.5172 9.48961C99.3716 9.47343 109.142 11.2973 118.327 14.8676L112.687 27.8972C97.7373 22.2855 81.2601 22.2855 66.3107 27.8972L60.67 14.8787C69.8673 11.3051 79.6501 9.47747 89.5172 9.48961ZM38.3663 27.9601C43.371 23.8018 48.8717 20.2796 54.7426 17.4742L60.3851 30.4964C55.7521 32.7678 51.405 35.581 47.4351 38.877C40.3478 44.7857 34.5738 52.1104 30.4835 60.3815L17.4705 54.7408C22.4475 44.4267 29.572 35.2957 38.3663 27.9601ZM10.0187 98.7525C8.63461 86.8132 9.95548 74.7156 13.8833 63.3563C14.183 62.472 14.5105 61.5821 14.8638 60.6756L27.9045 66.3293C27.6973 66.8843 27.4864 67.4393 27.2977 67.9943C24.0539 77.3357 22.9686 87.2906 24.1231 97.1115C24.7513 102.433 26.0236 107.659 27.9119 112.674L14.8546 118.335C12.4103 112.042 10.785 105.46 10.0187 98.7525ZM54.7463 161.533C38.4378 153.711 25.2787 140.57 17.4354 124.272L30.4557 118.625C31.7521 121.251 33.2192 123.788 34.8476 126.221C41.2699 135.751 50.0749 143.432 60.387 148.503L54.7463 161.533ZM89.5265 169.523C79.6599 169.538 69.877 167.714 60.6793 164.143L66.3218 151.117C81.2622 156.74 97.7371 156.74 112.677 151.117L118.335 164.135C109.149 167.712 99.3747 169.537 89.5172 169.515L89.5265 169.523ZM143.972 113.112C137.982 126.949 126.94 137.98 113.097 143.956C113.042 143.98 112.986 144.004 112.935 144.031C112.803 144.096 112.67 144.148 112.541 144.203L112.243 144.329C104.885 147.376 96.9898 148.913 89.0264 148.85C81.063 148.786 73.1935 147.123 65.8852 143.959C55.4662 139.445 46.5595 132.038 40.22 122.618C38.2112 119.616 36.4739 116.441 35.0289 113.131C32.7303 107.793 31.2245 102.148 30.5593 96.3752C29.5158 87.5196 30.4943 78.5427 33.4213 70.1199C33.9004 68.7139 34.4332 67.3338 35.0493 65.9038C38.7601 57.3643 44.4193 49.8125 51.5735 43.8535C55.8965 40.2477 60.7159 37.2826 65.8834 35.0493C73.3364 31.8227 81.3717 30.158 89.4932 30.158C97.6147 30.158 105.65 31.8227 113.103 35.0493C127.537 41.3224 138.893 53.0659 144.678 67.7025C150.464 82.3391 150.206 98.673 143.961 113.12L143.972 113.112ZM164.147 118.327L151.126 112.689C156.724 97.7366 156.716 81.263 151.104 66.3163L164.124 60.6756C171.292 79.2236 171.298 99.7758 164.139 118.327H164.147Z" fill="#141718"/>
<path d="M94.1237 78.3121C84.8534 76.3141 84.1337 75.3521 84.1337 74.2421C84.1337 72.6288 86.5202 71.9073 88.8864 71.9073C94.8178 72.1409 100.515 74.2871 105.126 78.0253C105.471 78.2881 105.865 78.4788 106.285 78.5863C106.705 78.6937 107.143 78.7157 107.572 78.6508C108 78.5859 108.412 78.4355 108.781 78.2086C109.151 77.9817 109.471 77.6828 109.723 77.3297L117.802 65.9984C118.28 65.3342 118.488 64.5137 118.386 63.702C118.283 62.8903 117.877 62.1476 117.249 61.6232C112.243 57.4417 106.286 54.556 99.9013 53.2204V47.6926C99.9013 46.834 99.5602 46.0105 98.9531 45.4033C98.3459 44.7962 97.5225 44.4551 96.6638 44.4551H82.3336C81.475 44.4551 80.6515 44.7962 80.0444 45.4033C79.4372 46.0105 79.0961 46.834 79.0961 47.6926V53.5849C68.2958 56.7502 61.7061 65.0716 61.7061 75.8164C61.7061 91.3565 74.6987 95.5819 87.9614 98.5586C96.514 100.603 97.7313 101.195 97.7313 102.279C97.7313 104.767 92.9212 104.893 91.9629 104.893C84.9763 104.794 78.2582 102.186 73.0337 97.5466C72.3736 97.0046 71.526 96.7454 70.6757 96.8254C69.8253 96.9054 69.0411 97.3183 68.4937 97.974L59.573 108.656C59.0385 109.297 58.7721 110.12 58.8293 110.952C58.8865 111.785 59.2629 112.564 59.8801 113.126C65.3482 118.031 71.9545 121.494 79.0998 123.201V129.287C79.0996 129.712 79.1832 130.134 79.3458 130.526C79.5084 130.919 79.7469 131.276 80.0475 131.577C80.3482 131.878 80.7052 132.116 81.0981 132.279C81.491 132.441 81.9121 132.525 82.3373 132.525H96.6675C97.0927 132.525 97.5138 132.441 97.9067 132.279C98.2996 132.116 98.6566 131.878 98.9573 131.577C99.258 131.276 99.4965 130.919 99.6591 130.526C99.8217 130.134 99.9053 129.712 99.905 129.287V123.841C112.659 121.227 120.179 112.702 120.179 100.603C120.179 85.1867 106.732 81.0131 94.1237 78.3121ZM96.2383 117.891C95.4586 117.992 94.7424 118.374 94.2236 118.965C93.7047 119.555 93.4187 120.315 93.4189 121.101V126.05H85.5712V120.592C85.5712 119.837 85.3074 119.106 84.8253 118.525C84.3432 117.944 83.6732 117.549 82.9312 117.41C77.0174 116.343 71.433 113.915 66.6197 110.317L71.4722 104.504C77.4039 108.903 84.5784 111.307 91.9629 111.368C101 111.368 104.206 106.471 104.206 102.279C104.206 95.8039 98.6563 94.4663 89.4192 92.2463C75.0261 89.0162 68.1755 85.7325 68.1755 75.8127C68.1755 67.3656 73.7108 61.1865 82.9848 59.2829C83.716 59.134 84.3732 58.737 84.8452 58.1592C85.3171 57.5813 85.5749 56.8581 85.5749 56.112V50.932H93.43V55.927C93.4297 56.7036 93.7087 57.4544 94.2162 58.0424C94.7236 58.6303 95.4256 59.0161 96.1939 59.1293C101.417 59.8411 106.397 61.7784 110.728 64.783L106.334 70.949C101.166 67.4918 95.1222 65.5753 88.9067 65.4231C81.194 65.4231 77.679 69.9907 77.679 74.2328C77.679 81.3868 84.6758 82.8945 92.7788 84.6428C108.432 87.9969 113.713 92.0262 113.713 100.608C113.704 110.147 107.34 116.446 96.2457 117.891H96.2383Z" fill="#141718"/>
</svg>
