<svg width="359" height="359" viewBox="0 0 359 359" fill="none" xmlns="http://www.w3.org/2000/svg">
<path fill-rule="evenodd" clip-rule="evenodd" d="M247.133 150.152V150.215C248.988 150.416 251.333 151.11 254.06 152.296C260.497 155.099 269.498 160.684 278.116 167.026C286.734 173.368 295.025 180.452 300.152 186.148C302.77 189.062 304.625 191.74 305.607 193.857C306.589 195.973 307.462 199.372 308.117 203.716C309.48 212.208 310.134 224.884 310.134 237.56C310.134 250.243 309.48 262.92 308.117 271.412C307.462 275.755 306.589 279.148 305.607 281.265C304.625 283.381 302.77 286.066 300.152 288.98C295.025 294.676 286.734 301.76 278.116 308.101C269.498 314.436 260.497 320.028 254.06 322.831C251.333 324.018 248.988 324.712 247.133 324.913V324.968H110.712V150.152H247.133Z" fill="#584AFF"/>
<path fill-rule="evenodd" clip-rule="evenodd" d="M184 33.043V33.1053C185.855 33.3065 188.2 34.0003 190.927 35.1868C197.364 37.9898 206.365 43.5751 214.983 49.9167C223.602 56.2582 231.892 63.3422 237.019 69.0385C239.637 71.9526 241.492 74.631 242.474 76.7471C243.456 78.8633 244.329 82.263 244.984 86.6064C246.348 95.0988 247.002 107.775 247.002 120.451C247.002 133.134 246.348 145.81 244.984 154.303C244.329 158.646 243.456 162.039 242.474 164.155C241.492 166.271 239.637 168.956 237.019 171.87C231.892 177.567 223.602 184.65 214.983 190.992C206.365 197.327 197.364 202.919 190.927 205.722C188.2 206.908 185.855 207.602 184 207.803V207.859H109.871V150.209L47.5791 33.043H184Z" fill="#C3FF4D"/>
<path fill-rule="evenodd" clip-rule="evenodd" d="M103.803 150.207C103.803 150.207 240.279 145.808 238.916 154.301C238.261 158.644 237.387 162.037 236.406 164.153C235.424 166.269 233.569 168.954 230.951 171.868C225.824 177.565 217.533 184.649 208.915 190.99C200.297 197.325 191.295 202.917 184.859 205.72C182.132 206.906 179.787 207.6 177.932 207.801V207.857H103.803V150.207Z" fill="white"/>
<path fill-rule="evenodd" clip-rule="evenodd" d="M110.65 150.151L48.3438 32.9922V324.967H110.65V150.151Z" fill="#584AFF"/>
<path fill-rule="evenodd" clip-rule="evenodd" d="M117.519 150.152V324.968C117.519 328.763 114.468 331.837 110.652 331.837H48.3457C44.599 331.837 41.4766 328.763 41.4766 324.968V32.9928C41.4766 29.8428 43.6274 27.0952 46.6802 26.332C49.7331 25.5688 52.9255 26.9842 54.4519 29.7734L116.757 146.933C117.242 147.925 117.519 149.028 117.519 150.152ZM103.783 151.866L55.2148 60.5374V318.099H103.783V151.866Z" fill="#001D65"/>
<path fill-rule="evenodd" clip-rule="evenodd" d="M249.516 73.8831C255.812 87.5916 254.725 105.519 254.667 120.429C254.61 136.49 255.24 152.231 249.516 166.97C246.368 175.212 238.297 181.526 232.745 186.219C223.587 194.004 216.261 199.464 206.301 205.646C200.463 209.257 192.106 213.888 185.581 214.604L184.894 214.643C184.837 214.683 184.78 214.706 184.78 214.706H110.656C106.879 214.706 103.788 211.633 103.788 207.838V151.893L42.3136 36.2434C41.1688 34.1198 41.2265 31.5501 42.4857 29.4838C43.745 27.4175 45.9766 26.1523 48.3806 26.1523H110.656H185.523C197.6 27.4745 208.534 36.0715 218.779 43.5698C219.123 43.8331 219.465 44.0964 219.866 44.354C228.452 50.6273 238.756 57.17 245.681 67.1638C247.284 69.2472 248.6 71.4848 249.516 73.8831ZM184.035 39.8895H59.8282L116.723 146.953C117.296 147.949 117.525 149.054 117.525 150.182V200.969H184.035V200.946C193.079 199.968 204.469 190.746 211.739 185.4C215.86 182.367 226.22 174.085 230.857 169.695C232.803 167.8 235.893 164.342 237.038 161.292C241.674 148.608 240.93 133.943 240.93 120.429C240.93 106.915 241.674 92.2451 237.038 79.5611C235.893 76.516 232.803 73.0531 230.857 71.1643C229.025 69.4414 226.334 67.1176 223.473 64.7479C221.813 63.3799 220.324 62.1382 218.893 60.9877C216.718 59.2649 214.715 57.6908 213.17 56.5059C212.712 56.1511 212.254 55.8076 211.739 55.4584C211.567 55.3153 211.395 55.1724 211.166 55.0235C207.732 52.5165 204.241 50.1294 199.605 47.1874C197.315 45.7622 189.816 41.5439 186.039 40.2389C185.352 40.0901 184.722 39.9813 184.035 39.9068V39.8895Z" fill="#001D65"/>
<path fill-rule="evenodd" clip-rule="evenodd" d="M247.113 331.89H110.714C106.879 331.89 103.846 328.799 103.846 325.021V150.181C103.846 146.386 106.879 143.312 110.714 143.312H247.113C247.8 143.312 248.43 143.404 249.003 143.57C251.178 143.936 253.811 144.732 256.787 146.025C263.598 148.973 273.042 154.834 282.143 161.514C291.186 168.159 299.887 175.606 305.267 181.576C308.473 185.136 310.648 188.462 311.85 191.043C312.994 193.55 314.14 197.545 314.884 202.691C316.257 211.443 317.001 224.516 317.001 237.56C317.001 250.668 316.257 263.718 314.884 272.476C314.14 277.627 312.994 281.634 311.85 284.153C310.648 286.728 308.473 290.048 305.267 293.597C299.887 299.55 291.186 306.99 282.143 313.687C273.042 320.327 263.598 326.222 256.787 329.142C253.811 330.458 251.178 331.26 249.003 331.603C248.43 331.775 247.8 331.89 247.113 331.89ZM246.369 157.05H117.583V318.152H246.369V318.095C247.685 317.98 249.346 317.408 251.292 316.549C257.417 313.916 265.888 308.593 274.015 302.583C282.258 296.573 290.156 289.819 295.021 284.382C297.082 282.15 298.57 280.089 299.314 278.429C300.116 276.712 300.802 273.907 301.318 270.358C302.577 262.173 303.264 249.867 303.264 237.56C303.264 225.3 302.577 213.017 301.318 204.792C300.802 201.243 300.116 198.45 299.314 196.721C298.57 195.079 297.082 193.029 295.021 190.763C290.156 185.348 282.258 178.622 274.015 172.59C265.888 166.591 257.417 161.268 251.292 158.624C249.346 157.771 247.685 157.21 246.369 157.066V157.05Z" fill="#001D65"/>
</svg>
