<svg width="128" height="128" viewBox="0 0 128 128" fill="none" xmlns="http://www.w3.org/2000/svg">
<path d="M64.0005 8.35059C52.9587 8.35059 42.1649 11.6249 32.9839 17.7594C23.803 23.8939 16.6473 32.6131 12.4218 42.8144C8.19631 53.0157 7.09072 64.2409 9.24487 75.0706C11.399 85.9002 16.7162 95.8479 24.5239 103.656C32.3316 111.463 42.2793 116.78 53.1089 118.935C63.9386 121.089 75.1638 119.983 85.3651 115.758C95.5664 111.532 104.286 104.376 110.42 95.1956C116.555 86.0146 119.829 75.2208 119.829 64.179C119.829 56.8475 118.385 49.5878 115.579 42.8144C112.774 36.041 108.661 29.8865 103.477 24.7023C98.293 19.5182 92.1385 15.4059 85.3651 12.6003C78.5917 9.79463 71.332 8.35059 64.0005 8.35059Z" fill="#0E76FB"/>
<path d="M64.0005 31.2998C58.6039 31.2905 53.402 33.316 49.4326 36.9722C45.4632 40.6284 43.018 45.6466 42.5847 51.0259C42.5376 51.5767 42.514 52.1424 42.514 52.6995C42.509 56.2566 43.3985 59.7579 45.1007 62.8813C46.9519 66.2776 49.6841 69.1124 53.01 71.0874C56.3358 73.0624 60.1324 74.1047 64.0005 74.1047C67.8686 74.1047 71.6652 73.0624 74.991 71.0874C78.3169 69.1124 81.0491 66.2776 82.9003 62.8813C84.6025 59.7579 85.492 56.2566 85.487 52.6995C85.487 52.1375 85.4634 51.5829 85.4163 51.0259C84.983 45.6466 82.5378 40.6284 78.5684 36.9722C74.599 33.316 69.3972 31.2905 64.0005 31.2998Z" fill="#FFFDE6"/>
<path d="M86.7661 82.0197C81.1698 76.9187 73.868 74.0953 66.2957 74.1045H61.7054C57.7093 74.1039 53.7523 74.8907 50.0604 76.42C46.3685 77.9493 43.0142 80.1911 40.1891 83.0173C37.3641 85.8436 35.1236 89.1988 33.5958 92.8913C32.068 96.5838 31.2828 100.541 31.2851 104.537V109.425C40.8063 116.305 52.254 120.008 64.0005 120.008C75.7471 120.008 87.1947 116.305 96.716 109.425V104.537C96.7213 100.297 95.8387 96.1032 94.125 92.225C92.4114 88.3468 89.9046 84.8705 86.7661 82.0197Z" fill="#FFFDE6"/>
<path d="M118.375 77.0848C117.82 76.9309 117.226 77.0038 116.725 77.2874C116.224 77.571 115.855 78.0421 115.701 78.5972C115.55 79.143 115.389 79.6864 115.221 80.2236C115.129 80.4974 115.093 80.7867 115.114 81.0747C115.136 81.3626 115.214 81.6435 115.345 81.9007C115.477 82.1579 115.658 82.3864 115.878 82.5728C116.099 82.7592 116.354 82.8996 116.63 82.986C116.905 83.0724 117.195 83.103 117.483 83.0759C117.77 83.0489 118.05 82.9648 118.304 82.8285C118.559 82.6922 118.784 82.5065 118.966 82.2823C119.147 82.058 119.283 81.7998 119.364 81.5226C119.547 80.9378 119.721 80.3493 119.885 79.7571C120.039 79.2026 119.966 78.6095 119.683 78.1084C119.4 77.6073 118.929 77.2392 118.375 77.0848Z" fill="#141718"/>
<path d="M64.0005 6.18066C51.7405 6.18056 39.7956 10.0651 29.8809 17.2767C19.9661 24.4883 12.5913 34.656 8.81531 46.3201C5.03927 57.9842 5.05618 70.5448 8.86359 82.1986C12.671 93.8525 20.0731 104 30.0072 111.185L30.0606 111.222L30.0718 111.23C39.9512 118.349 51.82 122.18 63.9974 122.18C76.1748 122.18 88.0437 118.349 97.9231 111.23L97.9802 111.19C103.45 107.236 108.188 102.358 111.982 96.7753C112.148 96.5398 112.266 96.2736 112.328 95.9921C112.39 95.7107 112.396 95.4197 112.345 95.136C112.293 94.8524 112.186 94.5819 112.029 94.3402C111.872 94.0985 111.668 93.8905 111.43 93.7283C111.192 93.5661 110.923 93.453 110.641 93.3956C110.358 93.3381 110.067 93.3375 109.785 93.3937C109.502 93.45 109.233 93.5619 108.994 93.7231C108.755 93.8843 108.551 94.0914 108.393 94.3325C105.707 98.2802 102.508 101.852 98.8784 104.955V104.538C98.8827 97.506 96.6119 90.6615 92.4052 85.0267C88.1984 79.392 82.2815 75.2696 75.5384 73.2752C79.2091 71.239 82.2683 68.2579 84.3988 64.641C86.5292 61.0242 87.6532 56.9032 87.6544 52.7056C87.6544 52.0852 87.6283 51.4649 87.5775 50.8645C87.0949 44.9433 84.4025 39.4204 80.0351 35.3932C75.6677 31.366 69.9451 29.1292 64.0043 29.1273C58.0635 29.1254 52.3395 31.3586 47.9695 35.3831C43.5996 39.4075 40.9037 44.9287 40.4174 50.8496C40.3653 51.4587 40.3392 52.0828 40.3392 52.7105C40.3411 56.9083 41.4663 61.0291 43.5981 64.6452C45.7299 68.2614 48.7907 71.2411 52.4627 73.2752C45.7178 75.2678 39.7989 79.3896 35.5904 85.0245C31.382 90.6594 29.11 97.5049 29.114 104.538V104.924C22.2788 99.071 17.0255 91.5931 13.8376 83.1781C10.6497 74.7632 9.62967 65.6815 10.8713 56.769C12.113 47.8566 15.5765 39.3995 20.943 32.1764C26.3095 24.9532 33.4067 19.1958 41.5813 15.4343C49.756 11.6727 58.7454 10.0277 67.7224 10.6507C76.6994 11.2737 85.3754 14.1447 92.9521 18.9995C100.529 23.8542 106.763 30.5367 111.08 38.432C115.397 46.3272 117.659 55.1816 117.658 64.1802C117.658 64.756 117.887 65.3082 118.294 65.7154C118.701 66.1225 119.253 66.3513 119.829 66.3513C120.405 66.3513 120.957 66.1225 121.364 65.7154C121.771 65.3082 122 64.756 122 64.1802C121.984 48.8028 115.868 34.0599 104.994 23.1865C94.1208 12.313 79.3779 6.19708 64.0005 6.18066ZM47.0039 61.8478C45.4802 59.041 44.6819 55.898 44.6814 52.7043C44.6814 52.2081 44.7025 51.7044 44.7447 51.1982C45.1444 46.3657 47.3469 41.8602 50.9149 38.5764C54.4828 35.2927 59.1552 33.4709 64.0043 33.4728C68.8533 33.4746 73.5243 35.3001 77.0897 38.5866C80.6551 41.8731 82.8542 46.3802 83.2502 51.2131C83.2911 51.7093 83.3122 52.2056 83.3122 52.7018C83.3063 57.7902 81.2863 62.6694 77.6936 66.2727C74.1009 69.8761 69.2278 71.9106 64.1395 71.9316H63.8541C60.4002 71.9118 57.0149 70.9658 54.0511 69.1922C51.0873 67.4185 48.6537 64.8822 47.0039 61.8478ZM33.4562 104.538C33.4539 100.827 34.183 97.1519 35.6017 93.7228C37.0203 90.2937 39.1009 87.1778 41.7243 84.5532C44.3478 81.9286 47.4628 79.8467 50.8912 78.4265C54.3197 77.0063 57.9944 76.2757 61.7054 76.2763H63.8579C63.9062 76.2763 63.9521 76.2763 64.0005 76.2763C64.0489 76.2763 64.0948 76.2763 64.1432 76.2763H66.2957C70.0067 76.2757 73.6814 77.0063 77.1098 78.4265C80.5383 79.8467 83.6532 81.9286 86.2767 84.5532C88.9002 87.1778 90.9807 90.2937 92.3994 93.7228C93.8181 97.1519 94.5471 100.827 94.5449 104.538V108.291C85.5721 114.507 74.9162 117.837 64.0005 117.837C53.0849 117.837 42.429 114.507 33.4562 108.291V104.538Z" fill="#141718"/>
</svg>
