<svg width="359" height="359" viewBox="0 0 359 359" fill="none" xmlns="http://www.w3.org/2000/svg">
<path fill-rule="evenodd" clip-rule="evenodd" d="M247.071 150.533V150.595C248.922 150.796 251.263 151.489 253.985 152.673C260.411 155.471 269.396 161.047 277.999 167.377C286.602 173.708 294.878 180.779 299.997 186.466C302.61 189.375 304.462 192.048 305.442 194.161C306.422 196.273 307.294 199.667 307.947 204.003C309.309 212.48 309.962 225.134 309.962 237.788C309.962 250.449 309.309 263.103 307.947 271.581C307.294 275.916 306.422 279.303 305.442 281.416C304.462 283.528 302.61 286.208 299.997 289.117C294.878 294.804 286.602 301.875 277.999 308.206C269.396 314.529 260.411 320.112 253.985 322.91C251.263 324.094 248.922 324.787 247.071 324.987V325.043H110.889V150.533H247.071Z" fill="#584AFF"/>
<path fill-rule="evenodd" clip-rule="evenodd" d="M184.049 33.6455V33.7077C185.9 33.9086 188.241 34.6012 190.964 35.7856C197.389 38.5837 206.374 44.1592 214.978 50.4896C223.581 56.8201 231.857 63.8917 236.975 69.578C239.589 72.4869 241.44 75.1607 242.42 77.2731C243.4 79.3856 244.272 82.7793 244.926 87.1151C246.287 95.5926 246.94 108.246 246.94 120.9C246.94 133.561 246.287 146.215 244.926 154.693C244.272 159.029 243.4 162.416 242.42 164.528C241.44 166.64 239.589 169.321 236.975 172.23C231.857 177.916 223.581 184.987 214.978 191.318C206.374 197.641 197.389 203.224 190.964 206.022C188.241 207.206 185.9 207.899 184.049 208.1V208.155H110.05V150.606L47.8672 33.6455H184.049Z" fill="#C3FF4D"/>
<path fill-rule="evenodd" clip-rule="evenodd" d="M104.02 150.607C104.02 150.607 240.257 146.215 238.895 154.693C238.242 159.029 237.37 162.416 236.39 164.528C235.41 166.641 233.558 169.321 230.945 172.23C225.826 177.916 217.551 184.988 208.947 191.318C200.344 197.642 191.359 203.224 184.934 206.022C182.211 207.207 179.87 207.899 178.019 208.1V208.155H104.02V150.607Z" fill="#001D65"/>
<path fill-rule="evenodd" clip-rule="evenodd" d="M110.849 150.532L48.6523 33.5781V325.042H110.849V150.532Z" fill="#584AFF"/>
<path fill-rule="evenodd" clip-rule="evenodd" d="M41.8496 33.667C41.8496 32.4237 42.3912 31.2086 42.9318 30.1275C43.7426 28.5869 45.3643 27.4506 46.986 27.0182C47.7968 26.8831 48.3405 26.8308 48.8811 26.8308L185.641 26.8018V26.91C185.641 26.8829 185.641 26.8558 185.641 26.8018C197.804 28.1261 208.612 36.7222 218.882 44.2089C219.153 44.4792 219.694 44.7225 219.965 44.9928C228.613 51.2362 238.884 57.7768 245.641 67.7501C247.263 69.8312 248.614 72.0732 249.695 74.4516C255.912 88.1548 254.832 106.048 254.832 120.94C254.561 129.211 254.834 137.429 254.293 145.429C255.104 145.753 255.911 146.077 256.721 146.482C263.478 149.428 272.939 155.265 282.129 161.941C291.048 168.563 299.697 176.023 305.102 181.969C308.346 185.51 310.508 188.834 311.859 191.429C312.941 193.916 314.021 197.915 314.831 203.051C316.183 211.781 316.996 224.837 316.996 237.891C316.996 250.946 316.183 263.972 314.831 272.729C314.021 277.838 312.941 281.837 311.859 284.351C310.508 286.918 308.346 290.243 305.102 293.784C299.697 299.757 291.048 307.19 282.129 313.812C272.939 320.488 263.478 326.352 256.721 329.298C253.748 330.568 251.319 331.38 249.157 331.731C248.346 331.894 247.802 332.001 247.262 332.001H48.8811C45.0972 332.001 41.8496 328.919 41.8496 325.135V33.667ZM60.2307 40.5321L115.099 143.779H240.505C241.316 136.157 241.048 128.373 241.048 120.94C241.048 107.426 241.589 92.8052 236.994 80.1291C235.913 77.102 232.937 73.6408 231.045 71.7488C229.153 70.0191 226.453 67.697 223.48 65.3456C221.859 63.9942 220.504 62.7492 218.882 61.587C216.72 59.8572 214.829 58.2892 213.208 57.0999C212.937 56.7756 212.397 56.4246 211.856 56.0732C211.586 55.938 211.588 55.7755 211.318 55.6403C207.804 53.1267 204.288 50.7492 199.694 47.8302C197.531 46.3977 189.964 42.1805 186.18 40.8832C185.639 40.721 184.83 40.6126 184.29 40.5585V40.5321H60.2307ZM104.014 152.347L55.6381 61.1832V318.27H104.014V152.347ZM117.802 318.27H246.454C247.805 318.108 249.424 317.57 251.316 316.705C257.532 314.083 265.912 308.758 274.02 302.758C282.129 296.731 290.239 290.028 295.104 284.623C296.996 282.352 298.618 280.325 299.158 278.676C299.969 276.946 300.777 274.161 301.317 270.62C302.669 262.404 303.213 250.135 303.213 237.891C303.213 225.621 302.669 213.35 301.317 205.133C300.777 201.592 299.969 198.807 299.158 197.078C298.618 195.456 296.996 193.401 295.104 191.131C290.239 185.725 282.129 179.022 274.02 172.995C266.182 167.238 258.075 162.103 252.129 159.373C251.318 162.076 250.506 164.754 249.695 167.402C246.452 175.619 238.346 181.915 232.94 186.591C223.751 194.375 216.451 199.834 206.451 205.996C200.504 209.591 192.398 214.214 185.641 214.944L185.097 214.97C185.097 215.024 185.097 215.026 185.097 215.026H117.802V318.27ZM117.802 157.483V201.322H184.29V201.295C193.209 200.322 204.559 191.105 211.856 185.781C215.91 182.754 226.18 174.484 231.045 170.105C232.937 168.213 235.913 164.752 236.994 161.725C237.535 160.319 238.075 158.916 238.346 157.483H117.802Z" fill="white"/>
</svg>
