<svg xmlns="http://www.w3.org/2000/svg" xmlns:xlink="http://www.w3.org/1999/xlink" width="53" height="53" viewBox="0 0 53 53">
  <defs>
    <clipPath id="clip-icon_unmuted">
      <rect width="53" height="53"/>
    </clipPath>
  </defs>
  <g id="icon_unmuted" clip-path="url(#clip-icon_unmuted)">
    <g id="_93754141716352315164510" data-name="93754141716352315164510" transform="translate(2.499 2.5)">
      <path id="Path_8070" data-name="Path 8070" d="M27.892,6.489a3.894,3.894,0,0,0-4,.124L10.738,14H6.5A4.505,4.505,0,0,0,2,18.5v11A4.505,4.505,0,0,0,6.5,34h4.238L23.9,41.387a3.9,3.9,0,0,0,4,.124,4.082,4.082,0,0,0,2.1-3.59V10.079a4.082,4.082,0,0,0-2.108-3.59ZM4,29.5v-11A2.5,2.5,0,0,1,6.5,16H10V32H6.5A2.5,2.5,0,0,1,4,29.5Zm24,8.421a2.055,2.055,0,0,1-1.068,1.835,1.9,1.9,0,0,1-1.983-.07c-.016-.011-.033-.021-.049-.03L12,32.415V15.585L24.9,8.344c.016-.009.033-.019.049-.03a1.9,1.9,0,0,1,1.983-.07A2.055,2.055,0,0,1,28,10.079Z" stroke="#000" stroke-width="2"/>
      <path id="Path_8071" data-name="Path 8071" d="M42.055,11.428a1,1,0,1,0-1.641,1.144,20,20,0,0,1,0,22.856,1,1,0,0,0,1.641,1.144,22,22,0,0,0,0-25.144Z" stroke="#000" stroke-width="2"/>
      <path id="Path_8072" data-name="Path 8072" d="M34.275,16.323a1,1,0,0,0-.247,1.393,11,11,0,0,1,0,12.568,1,1,0,1,0,1.639,1.146,13,13,0,0,0,0-14.86,1,1,0,0,0-1.392-.247Z" stroke="#000" stroke-width="2"/>
    </g>
  </g>
</svg>
