<svg width="220" height="220" viewBox="0 0 220 220" fill="none" xmlns="http://www.w3.org/2000/svg">
<path d="M185.05 14.4648H34.9496C29.8469 14.4648 25.7103 18.6014 25.7103 23.7041V196.295C25.7103 201.398 29.8469 205.535 34.9496 205.535H185.05C190.153 205.535 194.289 201.398 194.289 196.295V23.7041C194.289 18.6014 190.153 14.4648 185.05 14.4648Z" fill="#FFFDE6"/>
<path d="M67.0984 52.8906C62.5376 52.8906 58.1637 54.7024 54.9388 57.9273C51.7138 61.1522 49.9021 65.5262 49.9021 70.0869V73.0315H84.3117V70.0869C84.3117 67.8272 83.8663 65.5897 83.001 63.5023C82.1358 61.4148 80.8676 59.5183 79.269 57.9213C77.6704 56.3243 75.7726 55.0579 73.6843 54.1948C71.596 53.3316 69.3581 52.8884 67.0984 52.8906Z" fill="#2585FF"/>
<path d="M67.0984 30.3867C64.8749 30.3956 62.7039 31.0629 60.8594 32.3047C59.0149 33.5464 57.5797 35.3068 56.7349 37.3635C55.8901 39.4203 55.6736 41.6813 56.1128 43.861C56.552 46.0407 57.6271 48.0414 59.2025 49.6106C60.7778 51.1797 62.7828 52.2469 64.9642 52.6775C67.1456 53.108 69.4057 52.8826 71.4592 52.0297C73.5126 51.1768 75.2673 49.7346 76.5017 47.8852C77.7361 46.0358 78.3949 43.8621 78.3949 41.6386C78.3921 40.158 78.0977 38.6925 77.5285 37.3257C76.9592 35.9589 76.1263 34.7177 75.0773 33.6728C74.0283 32.6279 72.7838 31.7999 71.4147 31.2361C70.0457 30.6723 68.579 30.3837 67.0984 30.3867Z" fill="#2585FF"/>
<path d="M158.304 46.1563L153.029 35.4648L147.753 46.1563L135.955 47.8695L144.492 56.1917L142.477 67.9404L153.029 62.393L163.58 67.9404L161.565 56.1917L170.102 47.8695L158.304 46.1563Z" fill="#FC68C0"/>
<path d="M67.0983 111.179C62.5375 111.179 58.1636 112.99 54.9386 116.215C51.7137 119.44 49.902 123.814 49.902 128.375V131.317H84.3115V128.381C84.3124 126.121 83.8676 123.883 83.0027 121.795C82.1379 119.707 80.8698 117.809 79.2711 116.212C77.6724 114.614 75.7744 113.347 73.6857 112.483C71.597 111.62 69.3585 111.176 67.0983 111.179Z" fill="#2585FF"/>
<path d="M67.0984 88.6729C64.8749 88.6817 62.7039 89.3491 60.8594 90.5908C59.0149 91.8325 57.5797 93.5929 56.7349 95.6497C55.8901 97.7064 55.6736 99.9674 56.1128 102.147C56.552 104.327 57.6271 106.328 59.2025 107.897C60.7778 109.466 62.7828 110.533 64.9642 110.964C67.1456 111.394 69.4057 111.169 71.4592 110.316C73.5126 109.463 75.2673 108.021 76.5017 106.171C77.7361 104.322 78.3949 102.148 78.3949 99.9248C78.3921 98.4442 78.0977 96.9786 77.5285 95.6119C76.9592 94.2451 76.1263 93.0038 75.0773 91.9589C74.0283 90.9141 72.7838 90.0861 71.4147 89.5222C70.0457 88.9584 68.579 88.6698 67.0984 88.6729Z" fill="#2585FF"/>
<path d="M114.789 164.577H102.875C101.89 164.577 100.945 164.969 100.248 165.665C99.5512 166.362 99.1598 167.307 99.1598 168.292C99.1598 169.278 99.5512 170.223 100.248 170.919C100.945 171.616 101.89 172.008 102.875 172.008H114.789C115.775 172.008 116.72 171.616 117.416 170.919C118.113 170.223 118.505 169.278 118.505 168.292C118.505 167.307 118.113 166.362 117.416 165.665C116.72 164.969 115.775 164.577 114.789 164.577Z" fill="#0F3EEA"/>
<path d="M114.789 47.9854H102.875C101.89 47.9854 100.945 48.3768 100.248 49.0735C99.5512 49.7703 99.1598 50.7153 99.1598 51.7006C99.1598 52.6859 99.5512 53.6309 100.248 54.3277C100.945 55.0244 101.89 55.4158 102.875 55.4158H114.789C115.775 55.4158 116.72 55.0244 117.416 54.3277C118.113 53.6309 118.505 52.6859 118.505 51.7006C118.505 50.7153 118.113 49.7703 117.416 49.0735C116.72 48.3768 115.775 47.9854 114.789 47.9854Z" fill="#0F3EEA"/>
<path d="M114.789 106.283H102.875C101.89 106.283 100.945 106.675 100.248 107.371C99.5512 108.068 99.1598 109.013 99.1598 109.998C99.1598 110.984 99.5512 111.929 100.248 112.626C100.945 113.322 101.89 113.714 102.875 113.714H114.789C115.775 113.714 116.72 113.322 117.416 112.626C118.113 111.929 118.505 110.984 118.505 109.998C118.505 109.013 118.113 108.068 117.416 107.371C116.72 106.675 115.775 106.283 114.789 106.283Z" fill="#0F3EEA"/>
<path d="M67.0983 169.479C62.5375 169.479 58.1636 171.29 54.9386 174.515C51.7137 177.74 49.902 182.114 49.902 186.675V189.613H84.3115V186.671C84.311 184.411 83.8652 182.174 82.9997 180.087C82.1342 178 80.8659 176.104 79.2674 174.508C77.6688 172.911 75.7713 171.645 73.6832 170.782C71.5952 169.919 69.3576 169.476 67.0983 169.479Z" fill="#2585FF"/>
<path d="M67.0983 146.97C64.8748 146.979 62.7038 147.646 60.8593 148.888C59.0148 150.129 57.5796 151.89 56.7348 153.947C55.89 156.003 55.6735 158.264 56.1127 160.444C56.5518 162.624 57.627 164.624 59.2023 166.194C60.7777 167.763 62.7827 168.83 64.9641 169.26C67.1455 169.691 69.4056 169.466 71.459 168.613C73.5125 167.76 75.2671 166.318 76.5015 164.468C77.736 162.619 78.3948 160.445 78.3948 158.222C78.3886 155.232 77.195 152.366 75.0766 150.256C72.9581 148.146 70.0883 146.964 67.0983 146.97Z" fill="#2585FF"/>
<path d="M155.448 124.925C163.69 123.588 169.287 115.822 167.949 107.581C166.612 99.3391 158.847 93.7421 150.605 95.0795C142.364 96.4168 136.767 104.182 138.104 112.424C139.441 120.665 147.207 126.262 155.448 124.925Z" fill="#FFB11B"/>
<path d="M166.677 154.646H139.38V181.944H166.677V154.646Z" fill="#8A21ED"/>
<path d="M185.05 10.751H34.9537C31.5205 10.7555 28.2291 12.1213 25.8014 14.549C23.3738 16.9767 22.0079 20.268 22.0034 23.7013V196.301C22.0079 199.734 23.3738 203.026 25.8014 205.453C28.2291 207.881 31.5205 209.247 34.9537 209.251H185.05C188.483 209.247 191.774 207.881 194.202 205.453C196.63 203.026 197.995 199.734 198 196.301V136.127C198 135.141 197.609 134.196 196.912 133.5C196.215 132.803 195.27 132.412 194.285 132.412C193.299 132.412 192.354 132.803 191.658 133.5C190.961 134.196 190.569 135.141 190.569 136.127V196.297C190.567 197.76 189.984 199.162 188.95 200.197C187.915 201.231 186.513 201.814 185.05 201.817H34.9537C33.4906 201.814 32.0883 201.231 31.0537 200.197C30.0192 199.162 29.4367 197.76 29.4339 196.297V23.697C29.4339 22.9722 29.5767 22.2544 29.8541 21.5847C30.1315 20.915 30.5381 20.3065 31.0506 19.7939C31.5632 19.2814 32.1717 18.8748 32.8414 18.5974C33.5111 18.32 34.2288 18.1772 34.9537 18.1772H185.05C186.514 18.1772 187.918 18.7588 188.953 19.7939C189.988 20.8291 190.569 22.2331 190.569 23.697V79.5637C190.569 80.5491 190.961 81.4941 191.658 82.1908C192.354 82.8875 193.299 83.279 194.285 83.279C195.27 83.279 196.215 82.8875 196.912 82.1908C197.609 81.4941 198 80.5491 198 79.5637V23.7055C197.997 20.2715 196.631 16.9791 194.203 14.5505C191.776 12.1219 188.484 10.7555 185.05 10.751Z" fill="#141718"/>
<path d="M194.283 102.57C193.297 102.571 192.353 102.962 191.656 103.659C190.96 104.356 190.568 105.3 190.567 106.286V110.001C190.567 110.986 190.959 111.931 191.656 112.628C192.352 113.325 193.297 113.716 194.283 113.716C195.268 113.716 196.213 113.325 196.91 112.628C197.606 111.931 197.998 110.986 197.998 110.001V106.286C197.997 105.3 197.606 104.356 196.909 103.659C196.212 102.962 195.268 102.571 194.283 102.57Z" fill="#141718"/>
<path d="M114.789 164.58H102.875C101.889 164.58 100.944 164.972 100.248 165.668C99.5508 166.365 99.1594 167.31 99.1594 168.295C99.1594 169.281 99.5508 170.226 100.248 170.922C100.944 171.619 101.889 172.011 102.875 172.011H114.789C115.774 172.011 116.719 171.619 117.416 170.922C118.113 170.226 118.504 169.281 118.504 168.295C118.504 167.31 118.113 166.365 117.416 165.668C116.719 164.972 115.774 164.58 114.789 164.58Z" fill="#141718"/>
<path d="M77.779 52.1336C79.86 50.0269 81.2714 47.3519 81.8358 44.4449C82.4001 41.538 82.0922 38.5291 80.9506 35.7968C79.809 33.0645 77.8848 30.7308 75.4202 29.0894C72.9555 27.4481 70.0604 26.5723 67.0992 26.5723C64.138 26.5723 61.243 27.4481 58.7783 29.0894C56.3136 30.7308 54.3894 33.0645 53.2479 35.7968C52.1063 38.5291 51.7983 41.538 52.3626 44.4449C52.927 47.3519 54.3385 50.0269 56.4195 52.1336C53.3037 53.9827 50.7219 56.6098 48.9273 59.7573C47.1326 62.9048 46.1868 66.4646 46.1824 70.0878V73.0303C46.1824 74.0156 46.5738 74.9606 47.2705 75.6574C47.9673 76.3541 48.9123 76.7455 49.8976 76.7455H84.2902C84.7782 76.7458 85.2614 76.6499 85.7123 76.4633C86.1632 76.2767 86.5729 76.003 86.9179 75.658C87.2629 75.3129 87.5366 74.9033 87.7232 74.4524C87.9098 74.0015 88.0057 73.5183 88.0054 73.0303V70.0878C88.0028 66.4655 87.0588 62.9061 85.266 59.7586C83.4732 56.6111 80.8932 53.9836 77.779 52.1336ZM67.0982 34.0881C68.5875 34.0961 70.0412 34.5451 71.2756 35.3784C72.5101 36.2117 73.4701 37.3919 74.0344 38.7703C74.5988 40.1486 74.7422 41.6632 74.4466 43.123C74.151 44.5828 73.4297 45.9223 72.3735 46.9725C71.3174 48.0227 69.9739 48.7365 68.5125 49.0239C67.0511 49.3113 65.5373 49.1593 64.1621 48.5873C62.787 48.0152 61.6121 47.0486 60.7858 45.8095C59.9594 44.5703 59.5187 43.1142 59.5191 41.6248C59.5292 39.6223 60.3325 37.7054 61.753 36.294C63.1736 34.8826 65.0956 34.0917 67.0982 34.0945V34.0881ZM53.6341 69.3129C53.8274 65.8728 55.3301 62.6371 57.8339 60.27C60.3377 57.9029 63.6526 56.584 67.0982 56.584C70.5437 56.584 73.8586 57.9029 76.3624 60.27C78.8662 62.6371 80.3689 65.8728 80.5622 69.3129H53.6341Z" fill="#141718"/>
<path d="M114.789 47.9883H102.875C101.889 47.9883 100.944 48.3797 100.248 49.0764C99.5508 49.7732 99.1594 50.7182 99.1594 51.7035C99.1594 52.6889 99.5508 53.6339 100.248 54.3306C100.944 55.0273 101.889 55.4188 102.875 55.4188H114.789C115.774 55.4188 116.719 55.0273 117.416 54.3306C118.113 53.6339 118.504 52.6889 118.504 51.7035C118.504 50.7182 118.113 49.7732 117.416 49.0764C116.719 48.3797 115.774 47.9883 114.789 47.9883Z" fill="#141718"/>
<path d="M170.637 44.1877L160.771 42.7547L156.359 33.8168C156.053 33.1955 155.578 32.6724 154.989 32.3067C154.401 31.9409 153.721 31.7471 153.028 31.7471C152.335 31.7471 151.656 31.9409 151.068 32.3067C150.479 32.6724 150.004 33.1955 149.697 33.8168L145.286 42.7547L135.422 44.1877C134.735 44.2855 134.088 44.5742 133.556 45.0208C133.024 45.4675 132.628 46.0544 132.412 46.7148C132.197 47.3753 132.17 48.0829 132.337 48.7575C132.503 49.432 132.855 50.0465 133.353 50.5312L140.492 57.4904L138.807 67.3135C138.689 67.9968 138.766 68.6992 139.027 69.3413C139.288 69.9835 139.723 70.5398 140.284 70.9473C140.845 71.3548 141.509 71.5973 142.2 71.6474C142.892 71.6974 143.583 71.553 144.197 71.2304L153.02 66.5917L161.843 71.2304C162.457 71.553 163.148 71.6974 163.84 71.6474C164.531 71.5973 165.195 71.3548 165.756 70.9473C166.317 70.5398 166.752 69.9835 167.013 69.3413C167.274 68.6992 167.351 67.9968 167.233 67.3135L165.548 57.4904L172.687 50.5312C173.186 50.0481 173.538 49.4352 173.706 48.7618C173.874 48.0884 173.85 47.3815 173.636 46.7212C173.423 46.061 173.028 45.4737 172.498 45.0259C171.968 44.5781 171.323 44.2877 170.637 44.1877ZM158.96 53.5289C158.53 53.9498 158.208 54.4691 158.023 55.042C157.838 55.615 157.796 56.2243 157.899 56.8174L158.64 61.1462L154.752 59.1018C154.219 58.8215 153.626 58.6751 153.023 58.6751C152.421 58.6751 151.827 58.8215 151.294 59.1018L147.405 61.1462L148.148 56.8174C148.25 56.2243 148.207 55.6152 148.022 55.0424C147.837 54.4696 147.516 53.9502 147.086 53.5289L143.94 50.4611L148.288 49.8242C148.884 49.7378 149.45 49.5074 149.937 49.1531C150.424 48.7987 150.818 48.331 151.084 47.7904L153.028 43.8522L154.973 47.7904C155.239 48.3313 155.633 48.7991 156.121 49.1535C156.608 49.5079 157.175 49.7381 157.771 49.8242L162.117 50.4611L158.96 53.5289Z" fill="#141718"/>
<path d="M77.779 110.425C79.86 108.318 81.2714 105.643 81.8358 102.736C82.4001 99.829 82.0922 96.8201 80.9506 94.0878C79.809 91.3555 77.8848 89.0218 75.4202 87.3805C72.9555 85.7391 70.0604 84.8633 67.0992 84.8633C64.138 84.8633 61.243 85.7391 58.7783 87.3805C56.3136 89.0218 54.3894 91.3555 53.2479 94.0878C52.1063 96.8201 51.7983 99.829 52.3626 102.736C52.927 105.643 54.3385 108.318 56.4195 110.425C53.3037 112.273 50.7219 114.9 48.9272 118.047C47.1326 121.194 46.1867 124.754 46.1824 128.377V131.319C46.1829 132.304 46.5745 133.249 47.2712 133.946C47.9678 134.642 48.9124 135.034 49.8976 135.034H84.2902C85.2755 135.034 86.2205 134.643 86.9173 133.946C87.614 133.25 88.0054 132.305 88.0054 131.319V128.383C88.0035 124.76 87.0599 121.2 85.2671 118.052C83.4742 114.903 80.8938 112.275 77.779 110.425ZM67.0982 92.3792C68.5874 92.3871 70.041 92.836 71.2754 93.6692C72.5098 94.5024 73.4698 95.6826 74.0342 97.0608C74.5987 98.439 74.7422 99.9535 74.4468 101.413C74.1514 102.873 73.4302 104.212 72.3743 105.263C71.3184 106.313 69.9751 107.027 68.5138 107.315C67.0525 107.602 65.5388 107.451 64.1636 106.879C62.7884 106.307 61.6134 105.341 60.7868 104.102C59.9602 102.863 59.5191 101.407 59.5191 99.9179C59.5297 97.9158 60.3333 95.9995 61.7538 94.5885C63.1743 93.1775 65.096 92.3869 67.0982 92.3898V92.3792ZM53.6341 127.621C53.8274 124.181 55.3301 120.945 57.8339 118.578C60.3377 116.211 63.6526 114.892 67.0982 114.892C70.5437 114.892 73.8586 116.211 76.3624 118.578C78.8662 120.945 80.3689 124.181 80.5622 127.621H53.6341Z" fill="#141718"/>
<path d="M114.789 106.285H102.875C101.889 106.285 100.944 106.677 100.248 107.373C99.5508 108.07 99.1594 109.015 99.1594 110C99.1594 110.986 99.5508 111.931 100.248 112.627C100.944 113.324 101.889 113.716 102.875 113.716H114.789C115.774 113.716 116.719 113.324 117.416 112.627C118.113 111.931 118.504 110.986 118.504 110C118.504 109.015 118.113 108.07 117.416 107.373C116.719 106.677 115.774 106.285 114.789 106.285Z" fill="#141718"/>
<path d="M77.779 168.726C79.86 166.62 81.2714 163.945 81.8358 161.038C82.4001 158.131 82.0922 155.122 80.9506 152.39C79.809 149.657 77.8848 147.324 75.4202 145.682C72.9555 144.041 70.0604 143.165 67.0992 143.165C64.138 143.165 61.243 144.041 58.7783 145.682C56.3136 147.324 54.3894 149.657 53.2479 152.39C52.1063 155.122 51.7983 158.131 52.3626 161.038C52.927 163.945 54.3385 166.62 56.4195 168.726C53.3037 170.575 50.7219 173.202 48.9272 176.349C47.1326 179.496 46.1867 183.056 46.1824 186.678V189.612C46.1829 190.598 46.5745 191.542 47.2712 192.239C47.9678 192.936 48.9124 193.327 49.8976 193.328H84.2902C85.2755 193.328 86.2205 192.936 86.9173 192.24C87.614 191.543 88.0054 190.598 88.0054 189.612V186.67C88.0009 183.05 87.0561 179.492 85.2634 176.347C83.4707 173.201 80.8917 170.575 77.779 168.726ZM67.0982 150.681C68.5875 150.689 70.0412 151.138 71.2756 151.971C72.5101 152.804 73.4701 153.985 74.0344 155.363C74.5988 156.741 74.7422 158.256 74.4466 159.716C74.151 161.176 73.4297 162.515 72.3735 163.565C71.3174 164.615 69.9739 165.329 68.5125 165.617C67.0511 165.904 65.5373 165.752 64.1621 165.18C62.787 164.608 61.6121 163.641 60.7858 162.402C59.9594 161.163 59.5187 159.707 59.5191 158.218C59.5286 156.215 60.3317 154.298 61.7524 152.886C63.1731 151.475 65.0955 150.684 67.0982 150.687V150.681ZM53.6341 185.906C53.8274 182.466 55.3301 179.23 57.8339 176.863C60.3377 174.496 63.6526 173.177 67.0982 173.177C70.5437 173.177 73.8586 174.496 76.3624 176.863C78.8662 179.23 80.3689 182.466 80.5622 185.906H53.6341Z" fill="#141718"/>
<path d="M153.029 91.168C149.304 91.168 145.663 92.2725 142.565 94.3419C139.468 96.4113 137.054 99.3527 135.629 102.794C134.204 106.235 133.831 110.022 134.557 113.675C135.284 117.329 137.078 120.684 139.712 123.318C142.345 125.952 145.701 127.746 149.354 128.472C153.008 129.199 156.794 128.826 160.236 127.401C163.677 125.975 166.618 123.561 168.688 120.464C170.757 117.367 171.862 113.726 171.862 110.001C171.856 105.008 169.87 100.221 166.339 96.6903C162.809 93.1596 158.022 91.1736 153.029 91.168ZM153.029 121.404C150.773 121.404 148.569 120.735 146.694 119.482C144.818 118.229 143.357 116.448 142.494 114.365C141.631 112.281 141.405 109.988 141.845 107.777C142.285 105.565 143.371 103.533 144.966 101.938C146.56 100.344 148.592 99.2575 150.804 98.8176C153.016 98.3776 155.309 98.6034 157.392 99.4664C159.476 100.329 161.257 101.791 162.51 103.666C163.762 105.541 164.431 107.746 164.431 110.001C164.427 113.024 163.225 115.922 161.087 118.06C158.95 120.197 156.052 121.4 153.029 121.404Z" fill="#141718"/>
<path d="M166.684 150.933H139.38C138.395 150.933 137.45 151.325 136.753 152.021C136.057 152.718 135.665 153.663 135.665 154.648V181.945C135.665 182.931 136.057 183.875 136.753 184.572C137.45 185.268 138.395 185.66 139.38 185.661H166.684C167.669 185.66 168.614 185.268 169.31 184.572C170.007 183.875 170.398 182.931 170.399 181.945V154.648C170.398 153.663 170.007 152.718 169.31 152.021C168.614 151.325 167.669 150.933 166.684 150.933ZM162.968 178.23H143.095V158.363H162.962L162.968 178.23Z" fill="#141718"/>
</svg>
