<svg xmlns="http://www.w3.org/2000/svg" xmlns:xlink="http://www.w3.org/1999/xlink" width="53" height="53" viewBox="0 0 53 53">
  <defs>
    <clipPath id="clip-icon_document">
      <rect width="53" height="53"/>
    </clipPath>
  </defs>
  <g id="icon_document" clip-path="url(#clip-icon_document)">
    <g id="_5799829521581426691" data-name="5799829521581426691" transform="translate(4 4)">
      <path id="Path_8065" data-name="Path 8065" d="M39.132,0H13.369A5.888,5.888,0,0,0,7.5,5.869V7.5H0V45H37.5V37.5h1.631A5.888,5.888,0,0,0,45,31.632V5.869A5.888,5.888,0,0,0,39.132,0ZM33.75,41.25h-30v-30H7.5V31.632A5.888,5.888,0,0,0,13.369,37.5H33.75Zm7.5-9.619a2.138,2.138,0,0,1-2.119,2.119H13.369a2.138,2.138,0,0,1-2.119-2.119V5.869A2.138,2.138,0,0,1,13.369,3.75H39.132A2.138,2.138,0,0,1,41.25,5.869Z"/>
      <rect id="Rectangle_645" data-name="Rectangle 645" width="18" height="3.375" transform="translate(17.623 9.666)"/>
      <rect id="Rectangle_646" data-name="Rectangle 646" width="18" height="3.375" transform="translate(17.623 16.916)"/>
      <rect id="Rectangle_647" data-name="Rectangle 647" width="18" height="3.375" transform="translate(17.623 24.166)"/>
    </g>
  </g>
</svg>
