<svg width="220" height="220" viewBox="0 0 220 220" fill="none" xmlns="http://www.w3.org/2000/svg">
<path d="M11.7908 61.253H77.2639L44.5274 19.252L11.7908 61.253Z" fill="#1DCDFF"/>
<path d="M77.2642 61.253L110.001 19.252H44.5276L77.2642 61.253Z" fill="#87E4FF"/>
<path d="M77.2642 61.253H142.737L110.001 19.252L77.2642 61.253Z" fill="#1DCDFF"/>
<path d="M109.996 200.746L208.21 61.2529H11.7822L109.996 200.746Z" fill="#23CAE5"/>
<path d="M109.996 200.748L142.737 61.2529H77.2554L109.996 200.748Z" fill="#2DD7E8"/>
<path d="M142.737 61.253L175.474 19.252H110.001L142.737 61.253Z" fill="#87E4FF"/>
<path d="M142.737 61.253H208.21L175.474 19.252L142.737 61.253Z" fill="#1DCDFF"/>
<path d="M170.59 114.69C170.179 114.401 169.716 114.195 169.227 114.085C168.737 113.975 168.231 113.963 167.737 114.048C167.242 114.134 166.77 114.316 166.346 114.585C165.922 114.853 165.555 115.202 165.267 115.613L162.394 119.692C162.094 120.101 161.879 120.566 161.76 121.06C161.642 121.554 161.623 122.066 161.705 122.567C161.787 123.068 161.968 123.548 162.238 123.978C162.508 124.408 162.86 124.78 163.275 125.073C163.69 125.365 164.16 125.572 164.655 125.68C165.151 125.789 165.664 125.798 166.163 125.707C166.663 125.615 167.139 125.425 167.564 125.147C167.989 124.87 168.354 124.51 168.638 124.089L171.513 120.01C172.096 119.182 172.326 118.157 172.153 117.159C171.98 116.161 171.417 115.273 170.59 114.69Z" fill="#141718"/>
<path d="M211.835 60.153C211.79 59.9924 211.733 59.8349 211.667 59.6816C211.639 59.6205 211.633 59.5528 211.602 59.4939C211.534 59.3877 211.462 59.285 211.384 59.1861C211.325 59.0945 211.29 58.9919 211.222 58.9046L178.486 16.9058C178.455 16.8665 178.414 16.8403 178.381 16.8032C178.283 16.6914 178.177 16.5864 178.064 16.4889C177.964 16.393 177.857 16.3034 177.746 16.2205C177.094 15.7176 176.297 15.4409 175.474 15.4326H44.5275C43.7048 15.442 42.9075 15.7185 42.2556 16.2205C42.1446 16.3033 42.0382 16.3922 41.937 16.4867C41.825 16.5856 41.7194 16.6913 41.6205 16.8032C41.5878 16.8403 41.5463 16.8665 41.5158 16.9058L8.77919 58.9046C8.72681 58.9723 8.70062 59.053 8.65479 59.1229C8.5592 59.241 8.471 59.3649 8.39071 59.4939C8.35361 59.5659 8.34488 59.6466 8.31214 59.7121C8.26291 59.8263 8.22135 59.9437 8.18775 60.0635C8.11378 60.2764 8.059 60.4955 8.02406 60.7182C8.0066 60.8382 8.0066 60.9583 8.00006 61.0805C7.98839 61.3041 7.99642 61.5283 8.02406 61.7505C8.04228 61.8732 8.06705 61.9949 8.09827 62.115C8.14886 62.3344 8.21822 62.5491 8.3056 62.7566C8.3296 62.809 8.33397 62.8679 8.36016 62.9203C8.38635 62.9727 8.45182 63.0469 8.49111 63.1145C8.54099 63.2267 8.59709 63.336 8.65915 63.4419L106.869 202.937C107.069 203.214 107.305 203.464 107.572 203.679C107.637 203.733 107.709 203.771 107.779 203.819C108.021 203.995 108.283 204.141 108.56 204.255C108.661 204.297 108.755 204.336 108.857 204.369C109.592 204.627 110.392 204.627 111.127 204.369C111.229 204.336 111.325 204.297 111.424 204.255C111.701 204.142 111.963 203.995 112.205 203.819C112.275 203.771 112.347 203.733 112.412 203.679C112.679 203.464 112.915 203.214 113.115 202.937L151.644 148.23C151.933 147.82 152.138 147.357 152.248 146.867C152.359 146.378 152.371 145.872 152.286 145.377C152.2 144.883 152.018 144.411 151.75 143.987C151.482 143.563 151.133 143.196 150.723 142.907C150.313 142.618 149.85 142.412 149.361 142.302C148.871 142.192 148.365 142.179 147.871 142.265C147.376 142.35 146.904 142.532 146.48 142.8C146.056 143.069 145.689 143.418 145.4 143.828L118.218 182.437L145.764 65.0722H200.851L179.132 95.9209C178.843 96.3309 178.638 96.7938 178.528 97.283C178.419 97.7722 178.406 98.2782 178.492 98.7722C178.578 99.2662 178.76 99.7384 179.028 100.162C179.297 100.586 179.646 100.952 180.056 101.241C180.466 101.529 180.929 101.734 181.418 101.844C181.907 101.954 182.413 101.966 182.907 101.88C183.401 101.794 183.873 101.612 184.297 101.344C184.72 101.075 185.087 100.726 185.376 100.316L211.334 63.4506C211.392 63.3655 211.421 63.2673 211.473 63.1778C211.526 63.0883 211.598 63.0207 211.641 62.929C211.685 62.8374 211.681 62.7894 211.709 62.7108C211.778 62.5413 211.835 62.367 211.879 62.1892C211.923 62.0286 211.957 61.8653 211.98 61.7003C211.998 61.522 212.004 61.3426 211.997 61.1634C211.998 60.9984 211.987 60.8336 211.964 60.6702C211.934 60.4949 211.891 60.3221 211.835 60.153ZM134.918 57.4337H85.0838L110.001 25.4653L134.918 57.4337ZM102.181 23.0712L77.2641 55.0395L52.3472 23.0712H102.181ZM44.5275 25.4653L69.4444 57.4337H19.6106L44.5275 25.4653ZM19.1414 65.0722H74.2283L101.775 182.435L19.1414 65.0722ZM110.001 184.033L82.0655 65.0722H137.918L110.001 184.033ZM142.737 55.0504L117.82 23.0712H167.654L142.737 55.0504ZM150.557 57.4511L175.474 25.4653L200.391 57.4337L150.557 57.4511Z" fill="#141718"/>
</svg>
