<svg width="220" height="220" viewBox="0 0 220 220" fill="none" xmlns="http://www.w3.org/2000/svg">
<path fill-rule="evenodd" clip-rule="evenodd" d="M25 12C18.3726 12 13 17.3726 13 24V91C13 97.6274 18.3726 103 25 103H92C98.6274 103 104 97.6274 104 91V24C104 17.3726 98.6274 12 92 12H25ZM25 116C18.3726 116 13 121.373 13 128V195C13 201.627 18.3726 207 25 207H92C98.6274 207 104 201.627 104 195V128C104 121.373 98.6274 116 92 116H25ZM116 128C116 121.373 121.373 116 128 116H195C201.627 116 207 121.373 207 128V195C207 201.627 201.627 207 195 207H128C121.373 207 116 201.627 116 195V128ZM128 13C121.373 13 116 18.3726 116 25V92C116 98.6274 121.373 104 128 104H195C201.627 104 207 98.6274 207 92V25C207 18.3726 201.627 13 195 13H128Z" fill="url(#paint0_linear_789_15912)"/>
<mask id="mask0_789_15912" style="mask-type:luminance" maskUnits="userSpaceOnUse" x="13" y="12" width="194" height="195">
<path fill-rule="evenodd" clip-rule="evenodd" d="M25 12C18.3726 12 13 17.3726 13 24V91C13 97.6274 18.3726 103 25 103H92C98.6274 103 104 97.6274 104 91V24C104 17.3726 98.6274 12 92 12H25ZM25 116C18.3726 116 13 121.373 13 128V195C13 201.627 18.3726 207 25 207H92C98.6274 207 104 201.627 104 195V128C104 121.373 98.6274 116 92 116H25ZM116 128C116 121.373 121.373 116 128 116H195C201.627 116 207 121.373 207 128V195C207 201.627 201.627 207 195 207H128C121.373 207 116 201.627 116 195V128ZM128 13C121.373 13 116 18.3726 116 25V92C116 98.6274 121.373 104 128 104H195C201.627 104 207 98.6274 207 92V25C207 18.3726 201.627 13 195 13H128Z" fill="white"/>
</mask>
<g mask="url(#mask0_789_15912)">
<path d="M15 24C15 18.4772 19.4772 14 25 14V10C17.268 10 11 16.268 11 24H15ZM15 91V24H11V91H15ZM25 101C19.4772 101 15 96.5228 15 91H11C11 98.732 17.268 105 25 105V101ZM92 101H25V105H92V101ZM102 91C102 96.5228 97.5228 101 92 101V105C99.732 105 106 98.732 106 91H102ZM102 24V91H106V24H102ZM92 14C97.5228 14 102 18.4772 102 24H106C106 16.268 99.732 10 92 10V14ZM25 14H92V10H25V14ZM15 128C15 122.477 19.4772 118 25 118V114C17.268 114 11 120.268 11 128H15ZM15 195V128H11V195H15ZM25 205C19.4772 205 15 200.523 15 195H11C11 202.732 17.268 209 25 209V205ZM92 205H25V209H92V205ZM102 195C102 200.523 97.5228 205 92 205V209C99.732 209 106 202.732 106 195H102ZM102 128V195H106V128H102ZM92 118C97.5228 118 102 122.477 102 128H106C106 120.268 99.732 114 92 114V118ZM25 118H92V114H25V118ZM128 114C120.268 114 114 120.268 114 128H118C118 122.477 122.477 118 128 118V114ZM195 114H128V118H195V114ZM209 128C209 120.268 202.732 114 195 114V118C200.523 118 205 122.477 205 128H209ZM209 195V128H205V195H209ZM195 209C202.732 209 209 202.732 209 195H205C205 200.523 200.523 205 195 205V209ZM128 209H195V205H128V209ZM114 195C114 202.732 120.268 209 128 209V205C122.477 205 118 200.523 118 195H114ZM114 128V195H118V128H114ZM118 25C118 19.4772 122.477 15 128 15V11C120.268 11 114 17.268 114 25H118ZM118 92V25H114V92H118ZM128 102C122.477 102 118 97.5228 118 92H114C114 99.732 120.268 106 128 106V102ZM195 102H128V106H195V102ZM205 92C205 97.5228 200.523 102 195 102V106C202.732 106 209 99.732 209 92H205ZM205 25V92H209V25H205ZM195 15C200.523 15 205 19.4772 205 25H209C209 17.268 202.732 11 195 11V15ZM128 15H195V11H128V15Z" fill="#AFAAEC"/>
</g>
<path d="M195 117H128C121.925 117 117 121.925 117 128V195C117 201.075 121.925 206 128 206H195C201.075 206 206 201.075 206 195V128C206 121.925 201.075 117 195 117Z" fill="url(#paint1_linear_789_15912)" stroke="#707070" stroke-width="2"/>
<path d="M92 13H25C18.9249 13 14 17.9249 14 24V91C14 97.0751 18.9249 102 25 102H92C98.0751 102 103 97.0751 103 91V24C103 17.9249 98.0751 13 92 13Z" fill="url(#paint2_linear_789_15912)" stroke="#707070" stroke-width="2"/>
<defs>
<linearGradient id="paint0_linear_789_15912" x1="26.5" y1="12" x2="136" y2="186" gradientUnits="userSpaceOnUse">
<stop stop-color="#AFA8FF"/>
<stop offset="1" stop-color="#493AFF"/>
</linearGradient>
<linearGradient id="paint1_linear_789_15912" x1="161.5" y1="116" x2="161.5" y2="207" gradientUnits="userSpaceOnUse">
<stop stop-color="#2C3336"/>
<stop offset="1" stop-color="#202325"/>
</linearGradient>
<linearGradient id="paint2_linear_789_15912" x1="58.5" y1="12" x2="58.5" y2="103" gradientUnits="userSpaceOnUse">
<stop stop-color="#2C3336"/>
<stop offset="1" stop-color="#202325"/>
</linearGradient>
</defs>
</svg>
